<?xml version="1.0" encoding="UTF-8"?>
<svg xmlns="http://www.w3.org/2000/svg" xmlns:xlink="http://www.w3.org/1999/xlink" viewBox="0 0 100 100" width="100px" height="100px">
<g id="surface50886959">
<path style=" stroke:none;fill-rule:nonzero;fill:rgb(100%,100%,100%);fill-opacity:1;" d="M 50 4 C 24.617188 4 4 24.617188 4 50 C 4 75.382812 24.617188 96 50 96 C 75.382812 96 96 75.382812 96 50 C 96 24.617188 75.382812 4 50 4 Z M 50 8 C 73.21875 8 92 26.78125 92 50 C 92 73.21875 73.21875 92 50 92 C 26.78125 92 8 73.21875 8 50 C 8 26.78125 26.78125 8 50 8 Z M 50 12 C 29.035156 12 12 29.035156 12 50 C 12 70.964844 29.035156 88 50 88 C 70.964844 88 88 70.964844 88 50 C 88 29.035156 70.964844 12 50 12 Z M 50 16 C 50.175781 16 50.34375 16.023438 50.519531 16.027344 L 52.25 22.75 L 50.648438 25.308594 L 46 21 L 46 16.253906 C 47.3125 16.101562 48.644531 16 50 16 Z M 50.910156 16.046875 C 57.828125 16.230469 64.214844 18.453125 69.503906 22.164062 L 66.5 32.5 L 64.8125 34.617188 C 64.816406 34.328125 64.792969 33.382812 64.121094 32.710938 C 63.339844 31.929688 62 32.003906 62 32.003906 C 62 32.003906 61.925781 33.34375 62.707031 34.125 C 63.398438 34.816406 64.402344 34.820312 64.652344 34.816406 L 61.414062 38.875 L 60.753906 29.523438 L 63.988281 22.257812 L 62.804688 23.707031 C 62.800781 23.347656 62.753906 22.511719 62.121094 21.878906 C 61.339844 21.097656 60 21.171875 60 21.171875 C 60 21.171875 59.925781 22.511719 60.707031 23.292969 C 61.367188 23.949219 62.269531 23.980469 62.585938 23.980469 L 60.539062 26.488281 L 58.003906 19.070312 L 59 28 L 59.5 46.75 L 56.273438 53.289062 C 56.203125 52.839844 56.042969 52.300781 55.621094 51.878906 C 54.839844 51.097656 53.5 51.171875 53.5 51.171875 C 53.5 51.171875 53.425781 52.511719 54.207031 53.292969 C 54.789062 53.875 55.519531 53.953125 55.9375 53.96875 L 52 61.949219 L 51.996094 43.078125 L 52 42.84375 L 50.714844 39.621094 L 53.316406 36.230469 C 53.414062 36.597656 53.566406 36.984375 53.875 37.292969 C 54.65625 38.074219 55.996094 38 55.996094 38 C 55.996094 38 56.070312 36.660156 55.289062 35.878906 C 54.914062 35.503906 54.421875 35.335938 54 35.25 L 54 29 L 52.789062 34.324219 C 52.753906 33.871094 52.644531 33.234375 52.121094 32.710938 C 51.339844 31.929688 50 32.003906 50 32.003906 C 50 32.003906 49.925781 33.34375 50.707031 34.125 C 51.308594 34.722656 52.074219 34.792969 52.472656 34.804688 L 49.914062 37.613281 L 48.113281 33.089844 L 54 23 L 52.644531 19.949219 C 53.101562 19.890625 53.671875 19.746094 54.125 19.292969 C 54.90625 18.511719 54.832031 17.171875 54.832031 17.171875 C 54.832031 17.171875 53.492188 17.097656 52.710938 17.878906 C 52.417969 18.171875 52.269531 18.53125 52.167969 18.878906 Z M 45.566406 16.320312 L 44.5 21.5 L 49.605469 26.972656 L 47.964844 29.59375 C 47.945312 29.171875 47.863281 28.453125 47.289062 27.878906 C 46.507812 27.097656 45.167969 27.171875 45.167969 27.171875 C 45.167969 27.171875 45.09375 28.511719 45.875 29.292969 C 46.515625 29.933594 47.378906 29.972656 47.722656 29.976562 L 45.886719 32.910156 L 46.792969 35.175781 C 46.726562 35.171875 45.472656 35.117188 44.710938 35.878906 C 43.929688 36.660156 44.003906 38 44.003906 38 C 44.003906 38 45.34375 38.074219 46.125 37.292969 C 46.863281 36.554688 46.828125 35.382812 46.824219 35.253906 L 49.882812 42.898438 C 49.726562 42.734375 48.992188 42 48 42 C 46.894531 42 46 43 46 43 C 46 43 46.894531 44 48 44 C 49.046875 44 49.855469 43.140625 49.941406 43.050781 L 49.984375 43.15625 L 49.484375 49.660156 L 42.164062 41.550781 L 49.28125 52.285156 L 48.46875 62.898438 L 44.0625 53.96875 C 44.480469 53.953125 45.210938 53.875 45.792969 53.292969 C 46.574219 52.511719 46.5 51.171875 46.5 51.171875 C 46.5 51.171875 45.160156 51.097656 44.378906 51.878906 C 43.957031 52.300781 43.796875 52.839844 43.726562 53.289062 L 40.5 46.75 L 41 28 L 41.996094 19.070312 L 39.460938 26.488281 L 37.414062 23.980469 C 37.730469 23.980469 38.632812 23.949219 39.292969 23.292969 C 40.074219 22.511719 40 21.171875 40 21.171875 C 40 21.171875 38.660156 21.097656 37.878906 21.878906 C 37.246094 22.511719 37.199219 23.351562 37.195312 23.707031 L 36.011719 22.257812 L 39.246094 29.523438 L 38.585938 38.875 L 35.347656 34.816406 C 35.597656 34.820312 36.601562 34.816406 37.292969 34.125 C 38.074219 33.34375 38 32.003906 38 32.003906 C 38 32.003906 36.660156 31.929688 35.878906 32.710938 C 35.207031 33.382812 35.183594 34.328125 35.1875 34.617188 L 33.5 32.5 L 30.496094 22.164062 C 34.875 19.09375 40.003906 17.042969 45.566406 16.320312 Z M 30.261719 22.335938 L 31.257812 28.460938 C 31.160156 28.253906 31.042969 28.050781 30.871094 27.878906 C 30.089844 27.097656 28.75 27.171875 28.75 27.171875 C 28.75 27.171875 28.675781 28.511719 29.457031 29.292969 C 30.203125 30.039062 31.394531 30 31.507812 29.996094 L 32.050781 33.316406 L 38.378906 41.835938 L 38 47.179688 L 40.480469 52.769531 C 40.191406 52.496094 39.601562 52 38.75 52 C 37.644531 52 36.75 53 36.75 53 C 36.75 53 37.644531 54 38.75 54 C 39.738281 54 40.46875 53.273438 40.628906 53.105469 L 44.230469 61.226562 L 29.96875 54.367188 L 29.5 44.75 L 28 34 L 28 52.585938 L 21.871094 46.457031 L 21.402344 40.8125 C 21.707031 40.8125 22.628906 40.789062 23.292969 40.125 C 24.074219 39.34375 24 38.003906 24 38.003906 C 24 38.003906 22.660156 37.929688 21.878906 38.710938 C 21.566406 39.023438 21.414062 39.414062 21.316406 39.78125 L 21 36 L 20.242188 43.578125 L 17.78125 39.183594 C 20.078125 32.324219 24.492188 26.457031 30.261719 22.335938 Z M 69.738281 22.335938 C 75.507812 26.457031 79.921875 32.324219 82.21875 39.183594 L 79.757812 43.582031 L 79 36 L 78.683594 39.78125 C 78.585938 39.414062 78.433594 39.023438 78.121094 38.710938 C 77.339844 37.929688 76 38.003906 76 38.003906 C 76 38.003906 75.925781 39.34375 76.707031 40.125 C 77.371094 40.789062 78.292969 40.8125 78.597656 40.8125 L 78.128906 46.457031 L 72 52.585938 L 72 34 L 70.5 44.75 L 70.03125 54.367188 L 55.769531 61.226562 L 59.371094 53.105469 C 59.53125 53.273438 60.261719 54 61.25 54 C 62.355469 54 63.25 53 63.25 53 C 63.25 53 62.355469 52 61.25 52 C 60.398438 52 59.808594 52.496094 59.519531 52.769531 L 62 47.179688 L 61.621094 41.835938 L 67.949219 33.316406 L 68.492188 29.996094 C 68.605469 30 69.796875 30.039062 70.542969 29.292969 C 71.324219 28.511719 71.25 27.171875 71.25 27.171875 C 71.25 27.171875 69.910156 27.097656 69.128906 27.878906 C 68.957031 28.050781 68.839844 28.253906 68.742188 28.460938 Z M 34.832031 23.171875 C 34.832031 23.171875 33.492188 23.097656 32.710938 23.878906 C 31.929688 24.660156 32.003906 26 32.003906 26 C 32.003906 26 33.34375 26.074219 34.125 25.292969 C 34.90625 24.511719 34.832031 23.171875 34.832031 23.171875 Z M 65.167969 23.171875 C 65.167969 23.171875 65.09375 24.511719 65.875 25.292969 C 66.65625 26.074219 67.996094 26 67.996094 26 C 67.996094 26 68.070312 24.660156 67.289062 23.878906 C 66.507812 23.097656 65.167969 23.171875 65.167969 23.171875 Z M 32 39.171875 C 32 39.171875 30.660156 39.097656 29.878906 39.878906 C 29.097656 40.660156 29.171875 42 29.171875 42 C 29.171875 42 30.511719 42.074219 31.292969 41.292969 C 32.074219 40.511719 32 39.171875 32 39.171875 Z M 68 39.171875 C 68 39.171875 67.925781 40.511719 68.707031 41.292969 C 69.488281 42.074219 70.828125 42 70.828125 42 C 70.828125 42 70.902344 40.660156 70.121094 39.878906 C 69.339844 39.097656 68 39.171875 68 39.171875 Z M 17.472656 40.101562 L 19.65625 46.195312 L 16.167969 46.703125 C 16.386719 44.429688 16.828125 42.222656 17.472656 40.101562 Z M 82.527344 40.101562 C 83.171875 42.222656 83.613281 44.429688 83.832031 46.707031 L 80.339844 46.199219 Z M 54 42 C 52.894531 42 52 43 52 43 C 52 43 52.894531 44 54 44 C 55.105469 44 56 43 56 43 C 56 43 55.105469 42 54 42 Z M 35.167969 43.171875 C 35.167969 43.171875 35.09375 44.511719 35.875 45.292969 C 36.65625 46.074219 37.996094 46 37.996094 46 C 37.996094 46 38.070312 44.660156 37.289062 43.878906 C 36.507812 43.097656 35.167969 43.171875 35.167969 43.171875 Z M 64.832031 43.171875 C 64.832031 43.171875 63.492188 43.097656 62.710938 43.878906 C 61.929688 44.660156 62.003906 46 62.003906 46 C 62.003906 46 63.34375 46.074219 64.125 45.292969 C 64.90625 44.511719 64.832031 43.171875 64.832031 43.171875 Z M 25.167969 45.171875 C 25.167969 45.171875 25.09375 46.511719 25.875 47.292969 C 26.65625 48.074219 27.996094 48 27.996094 48 C 27.996094 48 28.070312 46.660156 27.289062 45.878906 C 26.507812 45.097656 25.167969 45.171875 25.167969 45.171875 Z M 74.832031 45.171875 C 74.832031 45.171875 73.492188 45.097656 72.710938 45.878906 C 71.929688 46.660156 72.003906 48 72.003906 48 C 72.003906 48 73.34375 48.074219 74.125 47.292969 C 74.90625 46.511719 74.832031 45.171875 74.832031 45.171875 Z M 32.832031 47.171875 C 32.832031 47.171875 31.492188 47.097656 30.710938 47.878906 C 29.929688 48.660156 30.003906 50 30.003906 50 C 30.003906 50 31.34375 50.074219 32.125 49.292969 C 32.90625 48.511719 32.832031 47.171875 32.832031 47.171875 Z M 67.167969 47.171875 C 67.167969 47.171875 67.09375 48.511719 67.875 49.292969 C 68.65625 50.074219 69.996094 50 69.996094 50 C 69.996094 50 70.070312 48.660156 69.289062 47.878906 C 68.507812 47.097656 67.167969 47.171875 67.167969 47.171875 Z M 83.863281 47.289062 C 83.933594 48.1875 84 49.085938 84 50 C 84 53.054688 83.589844 56.007812 82.835938 58.820312 L 79.25 58.5 L 71.792969 55.621094 L 78.179688 49.167969 C 78.28125 49.503906 78.429688 49.847656 78.707031 50.125 C 79.488281 50.90625 80.828125 50.832031 80.828125 50.832031 C 80.828125 50.832031 80.902344 49.492188 80.121094 48.710938 C 79.839844 48.429688 79.496094 48.28125 79.160156 48.179688 L 79.394531 47.941406 Z M 16.136719 47.292969 L 20.605469 47.941406 L 20.839844 48.179688 C 20.503906 48.28125 20.160156 48.429688 19.878906 48.710938 C 19.097656 49.492188 19.171875 50.832031 19.171875 50.832031 C 19.171875 50.832031 20.511719 50.90625 21.292969 50.125 C 21.570312 49.847656 21.71875 49.503906 21.820312 49.167969 L 28.207031 55.621094 L 20.75 58.5 L 17.164062 58.820312 C 16.410156 56.007812 16 53.054688 16 50 C 16 49.085938 16.066406 48.1875 16.136719 47.292969 Z M 22 54.003906 C 22 54.003906 21.925781 55.34375 22.707031 56.125 C 23.488281 56.90625 24.828125 56.832031 24.828125 56.832031 C 24.828125 56.832031 24.902344 55.492188 24.121094 54.710938 C 23.339844 53.929688 22 54.003906 22 54.003906 Z M 78 54.003906 C 78 54.003906 76.660156 53.929688 75.878906 54.710938 C 75.097656 55.492188 75.171875 56.832031 75.171875 56.832031 C 75.171875 56.832031 76.511719 56.90625 77.292969 56.125 C 78.074219 55.34375 78 54.003906 78 54.003906 Z M 30.660156 57.027344 L 45.863281 65.511719 L 44.230469 83.476562 C 31.292969 81.265625 20.867188 71.785156 17.316406 59.371094 L 21 60 Z M 21 60 C 21 60 20 60.894531 20 62 C 20 63.105469 21 64 21 64 C 21 64 22 63.105469 22 62 C 22 60.894531 21 60 21 60 Z M 69.339844 57.027344 L 79 60 L 82.683594 59.371094 C 79.132812 71.785156 68.707031 81.265625 55.769531 83.476562 L 54.136719 65.511719 Z M 79 60 C 79 60 78 60.894531 78 62 C 78 63.105469 79 64 79 64 C 79 64 80 63.105469 80 62 C 80 60.894531 79 60 79 60 Z M 79 60 "/>
</g>
</svg>
